<svg width="32" height="32" viewBox="0 0 32 32" fill="none" xmlns="http://www.w3.org/2000/svg">
<path fill-rule="evenodd" clip-rule="evenodd" d="M21.3732 3.60535C21.4432 3.00141 20.867 2.52744 20.2854 2.70417C19.24 3.02158 18.1767 3.69329 17.4704 4.51969C16.7943 5.30145 16.1844 6.45295 16.0547 7.65069C15.9934 8.21716 16.5087 8.67104 17.0676 8.55989C18.2072 8.33346 19.2813 7.61457 19.999 6.7453C20.7067 5.88868 21.2377 4.77558 21.3732 3.60535ZM26.2874 21.6672C26.6443 21.8754 26.7974 22.3101 26.6504 22.6964C26.3781 23.4126 25.8702 24.5684 25.063 25.7481C23.9571 27.3645 22.8093 28.975 21.0011 29.0082C19.2245 29.0411 18.6532 27.9547 16.6219 27.9547C14.5914 27.9547 13.9566 28.975 12.2748 29.0411C10.5295 29.1071 9.2004 27.2932 8.08528 25.6826C5.80668 22.3884 4.06534 16.3738 6.40352 12.3139C7.56506 10.2977 9.64086 9.02095 11.8939 8.9882C13.6078 8.95554 15.2254 10.1412 16.2732 10.1412C17.3202 10.1412 19.286 8.71535 21.3526 8.92473C22.1139 8.95647 24.0856 9.20299 25.6104 10.8167C25.9429 11.1686 25.9066 11.7307 25.534 12.0398C24.6783 12.7495 23.3169 14.2474 23.3381 16.6055C23.3657 19.573 25.2764 21.0772 26.2874 21.6672Z" fill="white"/>
</svg>
