<svg width="428" height="926" viewBox="0 0 428 926" fill="none" xmlns="http://www.w3.org/2000/svg">
<path opacity="0.05" d="M-42 958.882C-42 958.882 143.766 744.368 363.148 718.211C619.761 687.615 902.672 758.536 949.011 911.556C985.455 1031.9 911.119 1200.13 707.088 1189.74C563.599 1182.43 496.927 1066.64 502.084 986.008C521.062 689.263 1055 565 1055 565" stroke="white" stroke-width="5.15629" stroke-dasharray="15.47 15.47"/>
<path opacity="0.08" d="M-213.029 -101.682C-213.029 -101.682 -61.4189 126.184 145.294 177.929C387.087 238.455 666.405 205.056 729.378 64.2951C778.904 -46.4102 728.27 -216.419 531.793 -231.329C393.618 -241.814 315.726 -139.148 310.839 -61.3702C292.855 224.858 788.578 408.778 788.578 408.778" stroke="white" stroke-width="4.9732" stroke-dasharray="14.92 14.92"/>
<circle opacity="0.75" cx="381" cy="870" r="8" fill="white"/>
<circle opacity="0.22" cx="70" cy="90" r="20" fill="white"/>
</svg>
