<svg width="100" height="104" viewBox="0 0 100 104" fill="none" xmlns="http://www.w3.org/2000/svg">
<path d="M46.196 6.25252H45.1322V7.15721H46.1799V6.25252H46.196ZM42.9723 5.78402H55.2869C55.3539 5.78398 55.4202 5.79745 55.4819 5.82363C55.5436 5.8498 55.5994 5.88814 55.6461 5.93637C55.6927 5.9846 55.7292 6.04173 55.7533 6.10437C55.7774 6.16701 55.7888 6.23387 55.7866 6.30099V7.30261C55.7867 7.43697 55.7345 7.56607 55.6413 7.66257C55.548 7.75907 55.4209 7.81538 55.2869 7.81958H43.0367C42.9028 7.81538 42.7757 7.75907 42.6824 7.66257C42.5891 7.56607 42.537 7.43697 42.5371 7.30261V6.30099C42.5349 6.23387 42.5462 6.16701 42.5704 6.10437C42.5945 6.04173 42.631 5.9846 42.6776 5.93637C42.7242 5.88814 42.78 5.8498 42.8417 5.82363C42.9034 5.79745 42.9697 5.78398 43.0367 5.78402H42.9723ZM49.1296 0.000430859C50.4121 0.000430859 51.642 0.511054 52.5489 1.41996C53.4557 2.32887 53.9652 3.56162 53.9652 4.84701H44.294C44.294 4.20508 44.4211 3.56953 44.6682 2.97726C44.9152 2.38499 45.2772 1.84781 45.733 1.39691C46.1889 0.946011 46.7296 0.59037 47.3238 0.350641C47.9179 0.110913 48.5536 -0.00812829 49.1941 0.000430859H49.1296ZM47.6306 0.953592H47.55C47.271 1.12504 47.0068 1.31958 46.7602 1.53518C46.529 1.75203 46.3186 1.99001 46.1315 2.24602C45.9398 2.50147 45.7776 2.77787 45.648 3.06993C45.5035 3.37719 45.3848 3.69602 45.2934 4.02309H46.47V3.89385V3.76461V3.63537C46.47 3.40919 46.5667 3.18302 46.6312 2.95684C46.6957 2.73067 46.7763 2.5045 46.8569 2.29448L47.147 1.66442L47.5177 1.06668L47.6306 0.953592ZM27.0471 55.1061H69.5358V43.7974H60.8478V48.6439H40.5867L35.7511 45.4129V36.7698H27.0632V55.1061H27.0471ZM27.0471 8.82121H69.5358V20.6792H60.8478V15.2187H35.735V16.4465H27.0471V8.75659V8.82121ZM52.1921 57.594H53.1915V56.6893H52.1438V57.594C52.1568 57.5884 52.1681 57.5795 52.1766 57.5681C52.1851 57.5568 52.1904 57.5434 52.1921 57.5293V57.594ZM55.4159 58.0625H43.0367C42.9028 58.0583 42.7757 58.002 42.6824 57.9055C42.5891 57.809 42.537 57.6798 42.5371 57.5455V56.5439C42.5349 56.4768 42.5462 56.4099 42.5704 56.3473C42.5945 56.2846 42.631 56.2275 42.6776 56.1792C42.7242 56.131 42.78 56.0927 42.8417 56.0665C42.9034 56.0403 42.9697 56.0269 43.0367 56.0269H55.3514C55.4184 56.0269 55.4847 56.0403 55.5464 56.0665C55.6081 56.0927 55.6639 56.131 55.7105 56.1792C55.7572 56.2275 55.7936 56.2846 55.8178 56.3473C55.8419 56.4099 55.8532 56.4768 55.8511 56.5439V57.5455C55.8356 57.6684 55.7767 57.7816 55.685 57.8647C55.5933 57.9477 55.4749 57.9949 55.3514 57.9978L55.4159 58.0625ZM49.2585 63.8461C47.9761 63.8461 46.7461 63.3354 45.8393 62.4265C44.9324 61.5176 44.423 60.2849 44.423 58.9995H54.0941C54.0857 59.6359 53.9523 60.2645 53.7015 60.8493C53.4507 61.4341 53.0874 61.9637 52.6324 62.4077C52.1773 62.8518 51.6395 63.2016 51.0495 63.4373C50.4596 63.673 49.8291 63.79 49.1941 63.7814L49.2585 63.8461ZM50.7576 62.8767C51.0406 62.7051 51.3052 62.5048 51.5474 62.279C51.7819 62.0654 51.9926 61.8271 52.176 61.5682C52.3677 61.3127 52.5299 61.0363 52.6596 60.7442C52.8067 60.4437 52.9254 60.13 53.0142 59.8072V59.7265H51.8698V59.8557V59.9849V59.9526V60.0819C51.8258 60.3118 51.7666 60.5384 51.6925 60.7604C51.6925 60.9866 51.5635 61.1966 51.4829 61.4228L51.1928 62.0367C51.08 62.2467 50.951 62.4405 50.8221 62.6344L50.7576 62.8767ZM27.0471 31.8263H35.735V28.5953H27.0471V31.8263ZM27.0471 24.1526H35.735V20.9215H27.0471V24.1526ZM43.1657 41.778V46.7538C45.4062 46.7538 47.6306 46.7538 49.8711 46.7538L43.1657 41.778ZM56.4152 22.0524V17.0765C54.1747 17.0765 51.9504 17.0765 49.6938 17.0765L56.4152 22.0524ZM56.4152 27.1898L43.1496 17.0927H8.81689L43.1335 21.3577L56.4152 31.5032V27.1898ZM56.4152 34.9604L43.1496 24.8634H11.5409L43.1012 29.1284L56.4152 39.2739V34.9604ZM56.4152 42.7311L43.1496 32.6341H14.5068L43.1012 36.8991L56.4152 47.0284V42.7311ZM68.343 99.5169H70.6802V97.1097H71.9697V103.572H70.6802V100.696H68.343V103.475H67.0535V97.1097H68.343V99.5169ZM58.0271 102.845C58.0341 102.813 58.0341 102.78 58.0271 102.748V102.522L58.1238 102.215L58.2205 101.876L58.5106 102.053C58.8796 102.28 59.3028 102.403 59.7357 102.409C60.2192 102.409 60.7189 102.215 60.7189 101.666C60.7419 101.554 60.7419 101.438 60.7189 101.326C60.4998 101.032 60.1871 100.821 59.8324 100.729C58.9458 100.405 58.1077 99.8723 58.1077 98.8061C58.1076 98.5007 58.1853 98.2005 58.3333 97.9337C58.5422 97.6099 58.8323 97.3469 59.1747 97.1711C59.517 96.9952 59.8995 96.9128 60.2837 96.932C60.7803 96.9275 61.2713 97.0381 61.7182 97.2551L61.8955 97.3682V97.5783L61.686 98.1921L61.5893 98.4991L61.3153 98.3375C61.0069 98.1761 60.6638 98.0929 60.3159 98.0952C60.0726 98.0829 59.8328 98.1573 59.6389 98.3052C59.5827 98.3597 59.538 98.4249 59.5075 98.4971C59.477 98.5693 59.4614 98.6469 59.4616 98.7253C59.4377 98.8152 59.4377 98.9099 59.4616 98.9999C59.6067 99.3069 60.1225 99.5007 60.4126 99.6138C61.3475 99.9854 62.0245 100.502 62.0245 101.601C62.0245 101.856 61.9753 102.108 61.8794 102.344C61.7166 102.716 61.44 103.028 61.0896 103.233C60.6594 103.466 60.1762 103.583 59.6873 103.572C59.1211 103.571 58.5652 103.42 58.0754 103.136L57.9142 103.039L58.0271 102.845ZM40.9252 100.696V102.312H43.4881V103.475H39.6357V97.1097H43.3591V98.2729H40.9252V99.63H43.2141V100.777L40.9252 100.696ZM89.1522 101.149V103.475H87.8627V97.1097H88.0883C88.5842 97.0319 89.0855 96.9941 89.5874 96.9967C90.2457 96.9534 90.8977 97.1483 91.4249 97.5459C91.6189 97.7306 91.7721 97.954 91.8748 98.2016C91.9775 98.4492 92.0274 98.7157 92.0213 98.9838C92.033 99.2469 91.9919 99.5097 91.9006 99.7566C91.8092 100.004 91.6694 100.23 91.4894 100.422C91.2251 100.672 90.9135 100.866 90.573 100.994C90.2325 101.122 89.87 101.18 89.5068 101.165L89.1522 101.149ZM89.1522 98.1437V100.002H89.5229C90.1837 100.002 90.7479 99.743 90.7479 98.9999C90.7479 98.2568 90.216 98.1114 89.6035 98.1114H89.1522V98.1437ZM82.8981 100.195C82.935 100.786 82.814 101.376 82.5476 101.904C82.2813 102.432 81.8793 102.88 81.383 103.2C80.9243 103.453 80.4074 103.581 79.8839 103.572C79.3055 103.575 78.741 103.394 78.2721 103.055C77.8671 102.701 77.5447 102.263 77.3279 101.77C77.111 101.278 77.005 100.744 77.0173 100.205C77.0296 99.6673 77.1599 99.1385 77.3991 98.6565C77.6382 98.1746 77.9803 97.7513 78.401 97.4167C78.9077 97.0825 79.5052 96.914 80.1114 96.9342C80.7176 96.9545 81.3026 97.1625 81.786 97.5298C82.1467 97.8686 82.4278 98.2834 82.609 98.7444C82.7902 99.2054 82.867 99.701 82.8337 100.195H82.8981ZM78.3043 100.292C78.2872 100.65 78.3524 101.006 78.495 101.334C78.6376 101.661 78.8536 101.952 79.1264 102.183C79.3657 102.34 79.6459 102.424 79.9323 102.424C80.2187 102.424 80.4989 102.34 80.7382 102.183C81.019 101.944 81.2399 101.643 81.3827 101.304C81.5255 100.964 81.5864 100.595 81.5603 100.228C81.5603 99.2422 81.0767 98.0791 79.9484 98.0791C79.6338 98.0742 79.3268 98.1767 79.078 98.3699C78.7969 98.612 78.5751 98.9157 78.4298 99.2574C78.2845 99.5992 78.2195 99.9699 78.2398 100.341L78.3043 100.292ZM51.7086 100.341C52.0173 100.648 52.2253 101.043 52.305 101.472C52.3694 101.816 52.45 102.156 52.5467 102.489L52.6435 102.829V103.023L52.853 103.41H51.5796V103.281C51.4888 103.103 51.4237 102.912 51.3862 102.716C51.3862 102.409 51.225 102.102 51.1605 101.795C51.1197 101.488 50.9779 101.204 50.7576 100.987C50.5981 100.888 50.4133 100.837 50.2257 100.842H49.7743V103.41H48.3559V97.1097H48.5654C48.9892 97.0188 49.4217 96.9755 49.8549 96.9805H50.0806C50.7555 96.9222 51.4279 97.118 51.9665 97.5298C52.145 97.6966 52.2862 97.8995 52.3807 98.1251C52.4751 98.3507 52.5208 98.5938 52.5145 98.8384C52.5167 99.1364 52.444 99.4303 52.3032 99.6928C52.1623 99.9554 51.9579 100.178 51.7086 100.341ZM49.6776 99.743H50.1934C50.7415 99.743 51.2734 99.5007 51.2734 98.8868C51.279 98.7794 51.2618 98.672 51.2229 98.5717C51.184 98.4715 51.1243 98.3806 51.0477 98.3052C50.7913 98.1167 50.4791 98.0199 50.1612 98.0306H49.726L49.6776 99.743ZM33.7202 99.9369C33.8681 100.026 34.0036 100.135 34.1231 100.26C34.2796 100.42 34.4028 100.609 34.4858 100.817C34.5688 101.025 34.6099 101.248 34.6067 101.472C34.6109 101.728 34.5614 101.983 34.4615 102.22C34.3615 102.456 34.2133 102.669 34.0264 102.845C33.3859 103.318 32.5937 103.536 31.8021 103.459C31.3941 103.483 30.985 103.483 30.5771 103.459H30.3514V97.1097H30.5609C30.7786 97.0617 30.9995 97.0293 31.2218 97.0128C31.4848 96.9967 31.7486 96.9967 32.0116 97.0128C32.6407 96.965 33.2669 97.1362 33.7847 97.4975C33.976 97.642 34.13 97.8303 34.2338 98.0468C34.3376 98.2632 34.3881 98.5014 34.3811 98.7414C34.3742 98.9881 34.3111 99.2299 34.1966 99.4484C34.082 99.6668 33.919 99.856 33.7202 100.002V99.9369ZM31.6409 99.4684H32.0761C32.2588 99.4856 32.4429 99.4543 32.6098 99.3778C32.7767 99.3012 32.9206 99.1821 33.0271 99.0322C33.051 98.9368 33.051 98.8369 33.0271 98.7414C33.0342 98.5856 32.9888 98.432 32.8981 98.3052C32.6427 98.1027 32.3202 98.0046 31.9955 98.0306H31.5764L31.6409 99.4684ZM31.6409 102.344H32.0277C32.3965 102.363 32.7607 102.255 33.0593 102.037C33.133 101.96 33.1897 101.869 33.2258 101.769C33.2619 101.668 33.2766 101.562 33.2689 101.456C33.2689 100.745 32.5919 100.583 32.0116 100.583H31.6409V102.344ZM24.178 100.341C24.4867 100.648 24.6947 101.043 24.7743 101.472C24.8549 101.811 24.9355 102.15 25.0322 102.489L25.1289 102.829C25.1488 102.896 25.1759 102.961 25.2095 103.023L25.4191 103.41H24.0329V103.281L23.9362 103.039L23.8395 102.716C23.8395 102.409 23.6944 102.102 23.6138 101.795C23.5798 101.489 23.4434 101.205 23.227 100.987C23.0655 100.893 22.882 100.842 22.695 100.842H22.2437V103.41H20.9542V97.1097H21.1638C21.582 97.0188 22.0092 96.9754 22.4371 96.9805H22.5661C23.241 96.9222 23.9133 97.118 24.452 97.5298C24.6305 97.6966 24.7717 97.8995 24.8661 98.1251C24.9606 98.3507 25.0062 98.5938 25 98.8384C25.002 99.1382 24.9275 99.4336 24.7836 99.6966C24.6397 99.9595 24.4313 100.181 24.178 100.341ZM22.1631 98.0629V99.6784H22.6789C23.2269 99.6784 23.7428 99.4361 23.7428 98.8222C23.753 98.7143 23.7379 98.6056 23.6987 98.5046C23.6596 98.4036 23.5973 98.3132 23.5171 98.2406C23.2668 98.0521 22.9596 97.9551 22.6467 97.966H22.2115L22.1631 98.0629ZM12.1857 101.552L11.5732 103.41H10.2353L12.4113 96.9482H13.7008L15.893 103.41H14.5068L13.8781 101.552H12.1857ZM13.5558 100.373L13.1206 99.1453C13.0863 99.0561 13.0594 98.9643 13.04 98.8707C13.0351 98.9568 13.0351 99.0431 13.04 99.1292L12.6048 100.373H13.5558ZM4.36815 99.9369C4.53916 100.053 4.69604 100.188 4.83559 100.341C5.1412 100.669 5.30863 101.103 5.30303 101.552C5.30718 101.809 5.25771 102.064 5.15777 102.301C5.05784 102.537 4.90966 102.75 4.72276 102.926C4.06564 103.43 3.24039 103.661 2.4178 103.572C2.01519 103.596 1.6115 103.596 1.2089 103.572H0.983238V97.1097H1.17667C1.39437 97.0617 1.61521 97.0293 1.83752 97.0128C2.10055 96.9967 2.36431 96.9967 2.62733 97.0128C3.26116 96.9678 3.8916 97.1386 4.4165 97.4975C4.59845 97.6494 4.74478 97.8396 4.84507 98.0546C4.94536 98.2696 4.99716 98.5041 4.99677 98.7414C4.98996 98.9881 4.92686 99.2299 4.8123 99.4484C4.69774 99.6668 4.53478 99.856 4.33592 100.002L4.36815 99.9369ZM2.25661 99.533H2.69181C2.87456 99.5502 3.0586 99.5189 3.2255 99.4424C3.3924 99.3658 3.53631 99.2467 3.64281 99.0968C3.6667 99.0014 3.6667 98.9015 3.64281 98.8061C3.6499 98.6503 3.60448 98.4966 3.51386 98.3699C3.25839 98.1673 2.93591 98.0692 2.61122 98.0952H2.25661V99.533ZM2.25661 102.409H2.64346C3.01225 102.428 3.37642 102.319 3.67505 102.102C3.7508 102.026 3.80998 101.935 3.84882 101.835C3.88767 101.735 3.90534 101.627 3.90071 101.52C3.90071 100.809 3.2076 100.648 2.62733 100.648H2.25661V102.409ZM0 86.2049V75.7202C0 73.0707 1.61186 71.229 3.78788 71.229C5.96389 71.229 7.57575 73.0707 7.57575 75.7202V77.9334H5.17408V75.7202C5.17408 74.6055 4.60993 73.9431 3.78788 73.9431C2.96583 73.9431 2.38556 74.6055 2.38556 75.7202V86.2049C2.38556 87.3197 2.96583 87.982 3.78788 87.982C4.60993 87.982 5.17408 87.3197 5.17408 86.2049V83.507H7.54352V86.2049C7.54352 88.8544 5.93166 90.6961 3.75564 90.6961C1.57963 90.6961 0 88.8544 0 86.2049ZM18.0206 71.5036H20.4545V87.6589H24.7582V90.3568H18.0206V71.5036ZM34.8646 71.5036H37.2824V90.4215H34.8646V71.5036ZM56.1573 88.7413V91.5039C55.6729 91.5514 55.1858 91.4462 54.7639 91.203C54.342 90.9597 54.0065 90.5905 53.804 90.1468C53.216 90.5183 52.5325 90.7092 51.8375 90.6961C49.5165 90.6961 47.9529 88.8544 47.9529 86.1242V75.8009C47.9529 73.0707 49.5648 71.229 51.8375 71.229C54.1103 71.229 55.7221 73.0707 55.7221 75.8009V86.1242C55.7348 86.9279 55.5811 87.7255 55.2708 88.4667C55.5107 88.6632 55.8159 88.7613 56.1251 88.7413H56.1573ZM53.3043 75.8171C53.3043 74.6216 52.7402 73.9592 51.8375 73.9592C50.9349 73.9592 50.3869 74.6216 50.3869 75.8171V86.1242C50.3869 87.3196 50.951 87.982 51.8375 87.982C52.7241 87.982 53.3043 87.3196 53.3043 86.1242V75.8171ZM66.4894 86.2696V71.5036H68.9072V86.2534C68.9072 87.3681 69.4874 87.982 70.2611 87.982C71.0348 87.982 71.599 87.3681 71.599 86.2534V71.5036H73.9845V86.2534C73.9845 88.9029 72.4694 90.6961 70.2611 90.6961C68.0529 90.6961 66.4571 88.9029 66.4571 86.2534L66.4894 86.2696ZM84.7679 71.5198H91.6506V74.1046H87.1857V79.6136H90.7318V82.0692H87.1857V87.8528H91.6506V90.4376H84.7679V71.5198ZM93.6493 67.6102H92.4565V66.9479H95.5351V67.6102H94.3263V70.712H93.6493V67.6102ZM99.323 68.1595L98.3237 69.6458H98.0497L97.0342 68.1272V70.6959H96.3572V66.9317H97.0342L98.1947 68.6926L99.3392 66.9317H99.9355V70.6959H99.2586L99.323 68.1595Z" fill="white"/>
</svg>
