<svg width="102" height="104" viewBox="0 0 102 104" fill="none" xmlns="http://www.w3.org/2000/svg">
<path d="M100.615 58.0679L98.6598 55.3899C97.0446 53.1796 97.0233 50.1828 98.5961 47.9299L100.509 45.2307C102.719 42.0851 101.699 37.7281 98.2985 35.9003L95.3868 34.3275C92.9639 33.0311 91.6461 30.3318 92.0925 27.6326L92.6451 24.3596C93.2827 20.5764 90.4559 17.0695 86.609 16.9208L83.2934 16.772C80.5517 16.6657 78.1925 14.7954 77.4274 12.1599L76.5135 8.9719C75.4508 5.27375 71.3914 3.36092 67.842 4.89119L64.8027 6.20892C62.2735 7.29285 59.3618 6.65524 57.5127 4.59364L55.3023 2.12821C52.7306 -0.741038 48.2461 -0.698531 45.7169 2.19197L43.549 4.6999C41.7425 6.76151 38.8307 7.46288 36.3015 6.42145L33.241 5.16749C29.6916 3.70098 25.6534 5.67757 24.6333 9.39697L23.7619 12.585C23.0605 15.263 20.7438 17.1546 18.0021 17.3033L14.6865 17.4946C10.8396 17.7072 8.07665 21.2565 8.77802 25.0184L9.37312 28.2702C9.86196 30.9695 8.58673 33.6899 6.18507 35.0077L3.29457 36.6229C-0.063513 38.4933 -1.04118 42.8715 1.23296 45.9746L3.1883 48.6525C4.80358 50.8629 4.82483 53.8597 3.25206 56.1126L1.33923 58.8118C-0.871153 61.9573 0.149024 66.3143 3.54961 68.1422L6.46137 69.7149C8.88429 71.0114 10.202 73.7106 9.75569 76.4098L9.18184 79.6616C8.54423 83.4448 11.371 86.9517 15.2179 87.1004L18.5335 87.2492C21.2752 87.3555 23.6343 89.2258 24.3995 91.8613L25.3134 95.0493C26.3761 98.7475 30.4355 100.66 33.9849 99.13L37.0242 97.8123C39.5533 96.7284 42.4651 97.366 44.3142 99.4063L46.5246 101.872C49.0963 104.741 53.5808 104.698 56.11 101.808L58.2778 99.3C60.0844 97.2384 62.9962 96.5371 65.5254 97.5785L68.5859 98.8325C72.1352 100.299 76.1734 98.3224 77.1936 94.603L78.065 91.4149C78.7876 88.7795 81.1256 86.8879 83.8673 86.7179L87.1828 86.5266C91.0298 86.314 93.7927 82.7647 93.0914 79.0028L92.4963 75.751C92.0074 73.0518 93.2827 70.3313 95.6843 69.0135L98.5748 67.3983C101.912 65.5704 102.868 61.1709 100.615 58.0679ZM50.9241 85.5914C32.3909 85.5914 17.3645 70.5651 17.3645 52.0319C17.3645 33.4986 32.3909 18.4723 50.9241 18.4723C69.4573 18.4723 84.4836 33.4986 84.4836 52.0319C84.4836 70.5651 69.4573 85.5914 50.9241 85.5914Z" fill="white"/>
<path d="M46.6311 52.9246L43.6555 49.9278C41.8915 48.1425 39.001 48.1425 37.2157 49.9066C35.4304 51.6706 35.4304 54.5611 37.1944 56.3464L40.1699 59.3432L43.4855 62.6588C45.2071 64.4016 48.0125 64.4016 49.7553 62.68L53.0709 59.3857L64.6329 47.8875C66.4182 46.1234 66.4182 43.2329 64.6542 41.4476C62.8901 39.6623 59.9996 39.6623 58.2143 41.4264L46.6311 52.9246Z" fill="white"/>
</svg>
