<svg width="20" height="20" viewBox="0 0 20 20" fill="none" xmlns="http://www.w3.org/2000/svg">
<g id="Icon/cut">
<path id="Path 2" d="M2.5 15L12.5 7.5" stroke="white" stroke-linecap="round"/>
<path id="Path 2_2" d="M12.5 12.5L2.5 5" stroke="white" stroke-linecap="round"/>
<path id="Oval" fill-rule="evenodd" clip-rule="evenodd" d="M15 8.3335C16.3807 8.3335 17.5 7.21421 17.5 5.8335C17.5 4.45278 16.3807 3.3335 15 3.3335C13.6193 3.3335 12.5 4.45278 12.5 5.8335C12.5 7.21421 13.6193 8.3335 15 8.3335Z" stroke="white"/>
<path id="Oval_2" fill-rule="evenodd" clip-rule="evenodd" d="M15 16.6665C16.3807 16.6665 17.5 15.5472 17.5 14.1665C17.5 12.7858 16.3807 11.6665 15 11.6665C13.6193 11.6665 12.5 12.7858 12.5 14.1665C12.5 15.5472 13.6193 16.6665 15 16.6665Z" stroke="white"/>
</g>
</svg>
