<svg width="46" height="46" viewBox="0 0 46 46" fill="none" xmlns="http://www.w3.org/2000/svg">
<path d="M35.8797 21.225L35.7305 20.6447H23.3948V25.8841H30.773C30.3613 27.4829 29.4253 28.8974 28.1147 29.9013C26.8042 30.9053 25.1947 31.4406 23.544 31.4219C21.3899 31.4042 19.3202 30.5821 17.7409 29.1172C16.9645 28.3521 16.3467 27.4411 15.9228 26.4369C15.4989 25.4326 15.2772 24.3546 15.2704 23.2644C15.2955 21.075 16.1623 18.9791 17.6912 17.4116C19.2482 15.9366 21.3163 15.1224 23.4611 15.1401C25.298 15.1543 27.0666 15.8381 28.4352 17.0634L32.0828 13.3163C29.6787 11.1714 26.5669 9.99042 23.345 10.0002C21.5726 9.98971 19.8156 10.3284 18.1741 10.9969C16.5326 11.6655 15.0389 12.6508 13.7782 13.8966C11.3802 16.3874 10.0282 19.7027 10.0004 23.1601C9.97268 26.6176 11.2713 29.954 13.629 32.483C14.9353 33.7844 16.4878 34.8126 18.1959 35.5071C19.904 36.2018 21.7333 36.549 23.5771 36.5286C25.2491 36.5411 26.9063 36.2139 28.4483 35.567C29.9901 34.92 31.3845 33.9668 32.5471 32.7649C34.8283 30.2565 36.0624 26.9696 35.9958 23.5794C36.0137 22.7929 35.9749 22.0061 35.8797 21.225Z" fill="white"/>
</svg>
