<svg width="25" height="25" viewBox="0 0 25 25" fill="none" xmlns="http://www.w3.org/2000/svg">
<path d="M15.9727 3.90625H9.02656C7.66889 3.90728 6.36712 4.44708 5.4071 5.4071C4.44708 6.36712 3.90728 7.66889 3.90625 9.02656V15.9727C3.90708 17.3305 4.44678 18.6324 5.40682 19.5926C6.36686 20.5528 7.66875 21.0927 9.02656 21.0938H15.9727C17.3304 21.0925 18.6322 20.5525 19.5922 19.5924C20.5522 18.6323 21.0919 17.3304 21.093 15.9727V9.02656C21.0924 7.66876 20.5527 6.36675 19.5926 5.40664C18.6325 4.44653 17.3305 3.90687 15.9727 3.90625ZM19.3648 15.9727C19.3646 16.8723 19.0072 17.735 18.3711 18.3711C17.735 19.0072 16.8723 19.3646 15.9727 19.3648H9.02656C8.58113 19.3648 8.14006 19.2771 7.72855 19.1066C7.31703 18.9361 6.94313 18.6863 6.6282 18.3712C6.31327 18.0562 6.06348 17.6823 5.89309 17.2707C5.7227 16.8592 5.63505 16.4181 5.63516 15.9727V9.02656C5.63505 8.58117 5.72271 8.14012 5.8931 7.72861C6.0635 7.3171 6.31331 6.94319 6.62825 6.62825C6.94319 6.31331 7.3171 6.0635 7.72861 5.8931C8.14012 5.7227 8.58117 5.63505 9.02656 5.63516H15.9727C16.8721 5.63536 17.7345 5.99274 18.3705 6.6287C19.0065 7.26467 19.3639 8.12717 19.3641 9.02656L19.3648 15.9727Z" fill="white"/>
<path d="M12.5004 8.05645C10.0488 8.05645 8.05664 10.0494 8.05664 12.5002C8.05664 14.951 10.0496 16.9439 12.5004 16.9439C14.9512 16.9439 16.9441 14.951 16.9441 12.5002C16.9441 10.0494 14.952 8.05645 12.5004 8.05645ZM12.5004 15.215C11.7804 15.2151 11.0898 14.9292 10.5806 14.4202C10.0714 13.9111 9.78526 13.2206 9.78516 12.5006C9.78505 11.7806 10.071 11.09 10.58 10.5808C11.0891 10.0716 11.7796 9.78545 12.4996 9.78535C13.2196 9.78525 13.9102 10.0712 14.4194 10.5802C14.9286 11.0893 15.2147 11.7798 15.2148 12.4998C15.2149 13.2198 14.929 13.9104 14.42 14.4196C13.9109 14.9288 13.2204 15.2149 12.5004 15.215ZM16.9535 7.02441C17.1641 7.02457 17.3698 7.08713 17.5448 7.2042C17.7198 7.32126 17.8562 7.48758 17.9367 7.68212C18.0172 7.87666 18.0382 8.0907 17.9971 8.29719C17.956 8.50368 17.8546 8.69334 17.7057 8.84222C17.5568 8.99109 17.3672 9.09249 17.1607 9.1336C16.9542 9.17471 16.7401 9.15369 16.5456 9.07319C16.3511 8.9927 16.1847 8.85633 16.0677 8.68134C15.9506 8.50635 15.888 8.30058 15.8879 8.09004C15.8879 7.50254 16.2863 7.02441 16.9535 7.02441Z" fill="white"/>
</svg>
