<svg width="26" height="26" viewBox="0 0 26 26" fill="none" xmlns="http://www.w3.org/2000/svg">
<path d="M18.0516 17.3664C18.0491 17.3607 18.0467 17.3558 18.0451 17.3501C18.0572 17.3778 18.0686 17.4046 18.08 17.4322C18.0702 17.4102 18.0613 17.3883 18.0516 17.3664ZM18.1044 17.4891L18.1036 17.4883C18.1036 17.4883 18.1036 17.4891 18.1044 17.4891ZM16.9904 14.9898C16.988 14.9833 16.9847 14.976 16.9823 14.9695C16.9847 14.9744 16.9864 14.9801 16.9888 14.9849C16.9888 14.9866 16.9896 14.9882 16.9904 14.9898ZM21.1228 24.4254C21.1228 24.765 20.8262 25.0941 20.472 25.0762C19.3719 25.0185 18.2693 25.0567 17.1676 25.0778C16.6012 25.0892 16.0341 25.0941 15.4678 25.1095C14.921 25.1241 14.3742 25.1623 13.8274 25.1704C13.1847 25.1802 12.5444 25.1981 11.9034 25.1802C11.2509 25.1607 10.6001 25.0933 9.94769 25.0949C8.551 25.0965 7.15187 25.1542 5.75356 25.1859C5.47731 25.1924 5.236 25.0104 5.13362 24.7666C5.02556 24.6781 4.93862 24.5659 4.90125 24.4319C4.84844 24.2442 4.8915 24.0841 4.96869 23.9127C5.02475 23.7876 5.08081 23.6616 5.13525 23.5357C5.36112 22.9832 5.55775 22.4218 5.76494 21.8636C5.98919 21.2623 6.23456 20.6692 6.46044 20.0679C6.69119 19.4504 6.91381 18.8273 7.13725 18.2065C7.58169 16.9772 7.92294 15.7154 8.34787 14.4804C8.77931 13.2267 9.279 11.999 9.72669 10.751C9.96231 10.0969 10.1833 9.43962 10.4417 8.79369C10.6895 8.17294 10.982 7.57331 11.2485 6.96069C11.4313 6.51056 11.6068 6.05638 11.7831 5.60381C11.6409 5.5315 11.5012 5.45594 11.3696 5.35844C11.2396 5.26094 11.1486 5.18213 11.0502 5.05538C10.9844 4.97169 10.93 4.90019 10.8723 4.81488C10.8276 4.75069 10.7854 4.68325 10.7456 4.61581C10.5514 4.28431 10.3962 3.92356 10.3336 3.54331C10.306 3.367 10.2613 3.15412 10.2824 2.97294C10.3206 2.65037 10.371 2.35706 10.5197 2.06375C10.6107 1.88419 10.7041 1.72412 10.8341 1.56812C11.0088 1.3585 11.2217 1.21062 11.4654 1.09362C11.6897 0.986375 11.9367 0.909188 12.1821 0.869375C12.3169 0.846625 12.4542 0.818188 12.5924 0.814938C12.6086 0.8125 12.6257 0.8125 12.6427 0.8125C12.776 0.8125 12.9003 0.823875 13.0384 0.844188C13.1172 0.850688 13.1952 0.866938 13.2692 0.892125C13.4008 0.944938 13.5446 0.988 13.6632 1.06844C13.7591 1.13425 13.8493 1.20169 13.9403 1.274C13.9996 1.32194 14.0589 1.36988 14.1134 1.42431C14.258 1.56894 14.3888 1.73225 14.4985 1.90531C14.7455 2.29775 14.9234 2.81613 14.9104 3.28088C14.8974 3.77488 14.7821 4.28919 14.5017 4.70275C14.2889 5.01556 13.9964 5.23331 13.6535 5.38444C13.6072 5.40475 13.5617 5.42263 13.5154 5.44131C13.6868 5.95075 13.8534 6.461 14.0167 6.97206C14.2296 7.644 14.4481 8.31431 14.6984 8.97406C14.9519 9.63625 15.2176 10.2952 15.4694 10.959C15.7148 11.6001 15.9586 12.2403 16.1926 12.8862C16.3339 13.2738 16.4818 13.6581 16.6264 14.0441C16.7061 14.1204 16.7735 14.2033 16.8068 14.3219C16.8296 14.4032 16.8344 14.4877 16.8239 14.5706C16.8491 14.6339 16.8694 14.6973 16.8954 14.7607C16.897 14.7639 16.8978 14.7672 16.8994 14.7704C16.9067 14.7875 16.9132 14.8046 16.9206 14.8216C16.9311 14.846 16.9417 14.8704 16.9522 14.8948C16.962 14.9199 16.9726 14.9451 16.9831 14.9695C16.9734 14.9459 16.9628 14.9232 16.9522 14.8996C16.9644 14.9281 16.9758 14.9565 16.9888 14.9849C16.9986 15.0085 17.0091 15.0312 17.0189 15.0548C17.0099 15.0329 17.001 15.0109 16.9921 14.9898C17.1578 15.3684 17.339 15.7389 17.5096 16.1159C17.6786 16.4913 17.8427 16.8699 18.0036 17.2478C17.9996 17.2372 17.9955 17.2266 17.9906 17.2161C17.9996 17.238 18.0085 17.2599 18.0174 17.2811C18.0304 17.3111 18.0434 17.342 18.0564 17.3721C18.0516 17.3607 18.0459 17.3485 18.041 17.3371C18.0426 17.3412 18.0442 17.3453 18.0459 17.3493C18.0426 17.342 18.0394 17.3347 18.0361 17.3274C18.0418 17.3404 18.0467 17.3526 18.0524 17.3656C18.0686 17.4054 18.0849 17.4444 18.1019 17.4834C18.0946 17.4655 18.0873 17.4484 18.0808 17.4306C18.0889 17.4501 18.0971 17.4688 18.1052 17.4883C18.1052 17.4883 18.1052 17.4891 18.106 17.4891C18.106 17.4899 18.1068 17.4899 18.1076 17.4915C18.1214 17.5232 18.1344 17.5549 18.1482 17.5866C18.2002 17.6898 18.2392 17.8019 18.2847 17.9116C18.3229 18.0026 18.3603 18.0927 18.3985 18.1838C18.4481 18.304 18.4976 18.4242 18.5447 18.5461C18.7861 19.1547 19.0152 19.7706 19.263 20.3775C19.7814 21.593 20.3591 22.7801 20.9944 23.9395C21.0351 24.0134 21.0562 24.0923 21.0692 24.1711C21.1017 24.2515 21.1228 24.3368 21.1228 24.4254ZM18.1052 17.4931C18.1174 17.5216 18.1287 17.5508 18.1409 17.5793C18.1426 17.5817 18.1434 17.5849 18.145 17.5874C18.132 17.5557 18.1182 17.524 18.1052 17.4931ZM11.8782 2.92987C11.8757 2.99163 11.8757 3.05094 11.8782 3.11269C11.9107 3.28981 11.9546 3.46288 12.0155 3.63269C12.0846 3.77163 12.1642 3.90325 12.2527 4.03244L12.2536 4.03325C12.2958 4.06006 12.3381 4.08606 12.3803 4.11125C12.4372 4.07956 12.4989 4.056 12.5647 4.04219C12.7394 4.004 12.9101 3.95525 13.0774 3.89594C13.1099 3.87969 13.1416 3.86262 13.1733 3.84475C13.1961 3.822 13.2188 3.79844 13.2399 3.77487C13.2594 3.744 13.2773 3.71313 13.2944 3.68144C13.322 3.60019 13.3456 3.51894 13.3634 3.43525C13.3691 3.34913 13.3699 3.263 13.3659 3.17606C13.3382 3.05094 13.3009 2.93069 13.2562 2.81125C13.2164 2.73569 13.1749 2.66337 13.1278 2.5935C13.0604 2.51875 12.9897 2.4505 12.9141 2.38469C12.8979 2.37413 12.8816 2.36437 12.8646 2.35544C12.8353 2.3465 12.8061 2.33837 12.7768 2.33187C12.7086 2.33025 12.6403 2.33106 12.5729 2.33513C12.4429 2.36275 12.3177 2.3985 12.1934 2.44319C12.1431 2.47081 12.0951 2.49925 12.0472 2.53013C12.0456 2.53175 12.0439 2.53337 12.0423 2.535C12.0001 2.60487 11.9635 2.67556 11.9286 2.74787C11.9082 2.808 11.892 2.86812 11.8782 2.92987ZM11.4313 9.65006C11.3891 9.76056 11.3476 9.87106 11.3062 9.98238C12.2308 10.6698 13.1278 11.3929 14.0378 12.0989C14.2604 12.2663 14.4855 12.4321 14.7089 12.5986C14.3327 11.5814 13.9436 10.5706 13.543 9.56069C13.2895 8.92125 13.0587 8.27206 12.828 7.62369C12.7589 7.42869 12.6882 7.2345 12.6192 7.0395C12.5526 7.18737 12.4932 7.3385 12.425 7.48556C12.1569 8.06 11.8701 8.62225 11.6125 9.20319C11.5491 9.35106 11.4882 9.49975 11.4313 9.65006ZM9.968 13.4818C9.89975 13.6622 9.84206 13.8458 9.77625 14.027C9.877 14.0611 9.97044 14.1107 10.0631 14.1846C10.3694 14.4333 10.6627 14.6957 10.9657 14.9459C11.229 15.1613 11.4955 15.3733 11.7644 15.5829C12.0927 15.8324 12.4258 16.0777 12.7581 16.3247C13.3017 16.7286 13.8339 17.147 14.3791 17.5451C14.9129 17.9359 15.4467 18.3276 15.9837 18.7111C16.5241 19.0986 17.0595 19.4935 17.5884 19.8973C17.6364 19.9339 17.6827 19.9737 17.7298 20.0119C17.6518 19.8136 17.5722 19.6162 17.4934 19.4187C17.3252 18.9979 17.1529 18.5786 16.9791 18.1602C16.9612 18.1261 16.9466 18.0903 16.9344 18.0537C16.8556 17.8644 16.7767 17.6759 16.6979 17.4874C16.4233 16.8496 16.117 16.2256 15.8472 15.587C15.7376 15.3278 15.6466 15.0613 15.5442 14.7997C14.8089 14.2537 14.076 13.7028 13.3496 13.1471C12.9101 12.8107 12.4681 12.4784 12.0204 12.155C11.6198 11.8649 11.2136 11.5822 10.8114 11.2937C10.7797 11.3774 10.7488 11.4619 10.7163 11.5448C10.4661 12.1899 10.2134 12.8359 9.968 13.4818ZM13.5007 23.9111C13.4561 23.8794 13.4106 23.8461 13.3659 23.8144C12.8272 23.4341 12.2999 23.0401 11.7693 22.6517C11.1989 22.2349 10.6277 21.8181 10.0728 21.3818C9.54875 20.9698 9.04012 20.5368 8.51444 20.1256C8.30887 19.9688 8.1025 19.8104 7.89694 19.6528C7.74906 20.0623 7.602 20.4718 7.4525 20.8796C7.09175 21.8603 6.757 22.8507 6.41006 23.8371C6.81225 23.8347 7.21444 23.8314 7.61744 23.8331C8.20731 23.8331 8.79881 23.8331 9.38869 23.8249C9.66412 23.8217 9.94037 23.8152 10.2174 23.8282C10.4856 23.8396 10.7545 23.8599 11.0242 23.8745C11.5759 23.9078 12.1276 23.9176 12.6817 23.9208C12.9531 23.9208 13.2269 23.9135 13.5007 23.9111ZM19.3767 23.8103C19.2849 23.6324 19.1931 23.4544 19.1046 23.2749C18.9372 22.9352 18.7926 22.5859 18.6439 22.2389C18.5358 22.2105 18.4383 22.1626 18.3416 22.087C17.9207 21.7579 17.5242 21.398 17.1042 21.0649C16.8604 20.8796 16.6151 20.6968 16.3664 20.5164C15.8294 20.1272 15.2874 19.7454 14.7504 19.3586C14.1938 18.9581 13.6299 18.5681 13.0864 18.1496C12.0423 17.3461 10.9641 16.5904 9.92006 15.7861C9.71937 15.6317 9.52031 15.4773 9.32125 15.3229C9.11731 15.9437 8.92394 16.5685 8.73137 17.1933C8.616 17.5679 8.486 17.9384 8.36006 18.3097C8.42506 18.3438 8.48762 18.3836 8.55181 18.434C9.05394 18.8281 9.54712 19.2311 10.0281 19.6528C10.4677 20.0403 10.9137 20.4141 11.3728 20.7748C12.1016 21.3249 12.8394 21.8636 13.5763 22.4006C13.9354 22.6623 14.2962 22.9182 14.6586 23.1733C14.8137 23.2838 14.9811 23.3724 15.1412 23.4748C15.3329 23.5958 15.5125 23.7348 15.6864 23.881C15.9821 23.8761 16.2787 23.868 16.5744 23.8664C17.2512 23.8615 17.9289 23.8485 18.6057 23.8347C18.8632 23.8306 19.12 23.8193 19.3767 23.8103ZM9.92981 15.7942C9.92656 15.7917 9.92331 15.7885 9.92006 15.7861C9.91437 15.7812 9.90787 15.7779 9.90219 15.7739C9.91112 15.7804 9.92006 15.7869 9.92981 15.7942Z" fill="white"/>
<circle cx="22" cy="4" r="4" fill="#FB9400"/>
</svg>
