<svg width="16" height="17" viewBox="0 0 16 17" fill="none" xmlns="http://www.w3.org/2000/svg">
<path d="M8.4942 13.0361L10.0248 11.4098C10.3569 11.0569 10.8793 11.0079 11.2646 11.2933L13.2966 12.7991C13.7034 13.1006 13.7549 13.7193 13.4042 14.0919V14.0919C12.8384 14.6931 12.0258 14.9541 11.2676 14.6824C9.85824 14.1774 7.48859 13.0857 5.50816 10.9814C3.52773 8.87724 2.50019 6.35949 2.02488 4.86206C1.76916 4.05644 2.01486 3.19309 2.58068 2.59191V2.59191C2.93133 2.21934 3.51371 2.27405 3.79739 2.70622L5.21461 4.86524C5.4833 5.27457 5.4371 5.82968 5.10498 6.18256L3.57441 7.80879" stroke="white" stroke-linecap="round"/>
</svg>
